<?xml version="1.0" encoding="utf-8"?>
<!-- Generator: Adobe Illustrator 26.0.1, SVG Export Plug-In . SVG Version: 6.00 Build 0)  -->
<svg version="1.1" xmlns="http://www.w3.org/2000/svg" xmlns:xlink="http://www.w3.org/1999/xlink" x="0px" y="0px"
	 viewBox="0 0 1200 1200" style="enable-background:new 0 0 1200 1200;" xml:space="preserve">
<style type="text/css">
	.st0{fill:#231F20;}
</style>
<g id="background">
	<path class="st0" d="M666.27,726.39c0,0-34.36,17.36-36.29,17.48c0.48,0.75,2.65,8.85,4.74,16.93c2.45,9.44-2.77,19.15-12,22.31
		l-7.44,2.54c-6.02,2.05-12.61,1.59-18.28-1.29c-5.67-2.88-9.94-7.93-11.83-13.99l-5.41-17.35c0,0,20.95,1.8,34.97-9.19
		c18.38-14.4,2.27-33.72,2.27-33.72c3.79-23.49-8.34-29.56-8.34-29.56l0.76-9.47c6.86,5.34,14.91,9.36,26.71,12.69l2.46-5.49
		c-22.6-6.61-33.5-18.79-41.3-36l-18.57,2.65l0.38,12.51c-1.52,13.26-17.81,11.37-17.81,11.37L550,637.85
		c-0.94-2.58-0.16-5.47,1.95-7.22l29.55-24.48c4.11-3.41,9.82-4.21,14.71-2.06c19.37,8.49,67.18,29.47,66.27,29.47
		c-0.72,0,64.87-9.78,112.85-16.92v-56.36c0-12.02-5.07-23.49-13.97-31.57L626.13,405.8c-14.82-13.47-37.44-13.47-52.26,0
		L438.64,528.7c-8.9,8.09-13.97,19.55-13.97,31.57v201.36c0,23.56,19.1,42.67,42.67,42.67h265.33c23.56,0,42.67-19.1,42.67-42.67
		v-39.9L666.27,726.39z M600.24,431.23c9.88,0,17.89,8.01,17.89,17.89c0,9.88-8.01,17.89-17.89,17.89
		c-9.88,0-17.89-8.01-17.89-17.89C582.36,439.24,590.36,431.23,600.24,431.23z M498.03,543.75l5.31-32.21l10.23-2.27l12.1,35.62
		l35.27-7.96l-9.85-37.51l10.04-3.79l18.48,15.85l7.85,34.65l-10.23,23.77l5.1,20.84l-40.34,32.21l-10.99-37.51l-22.74-17.81
		L498.03,543.75z M541.22,631.28l7.2,23.12l-22.74,3.03C525.69,657.43,524.35,637.02,541.22,631.28z M535.44,685.76l-4.45-13.94
		c0-2.43,1.71-4.52,4.08-5l15.81-3.24l6.63,13.93c0,0,25.67-1.42,27.28-11.75c0-2.93,2.38-5.31,5.3-5.31h4.17
		c3.56,0,6.44,2.88,6.44,6.44v3.86c0,3.93-2.76,7.32-6.61,8.13l-51.92,10.81C539.27,690.31,536.35,688.61,535.44,685.76z
		 M546.1,710.27c-1.03-2.61-0.87-5.54,0.43-8.02c1.3-2.48,3.62-4.28,6.36-4.91l42.3-9.8c5.06-1.17,10.19,1.71,11.8,6.65
		c0.99,3.02,0.6,6.33-1.06,9.04c-1.66,2.71-4.43,4.56-7.57,5.06l-43.68,6.88C551.02,715.75,547.46,713.71,546.1,710.27z
		 M568.51,741.55c0,0-12.13,0.41-14.78-16.67l49.04-6.92c4.7-0.66,9.18,2.21,10.53,6.76c1.37,4.59-0.91,9.48-5.3,11.39
		C600.28,739.45,586.8,743.4,568.51,741.55z"/>
</g>
<g id="Logo">
</g>
</svg>
